inDegrees=yes
name=ik_S54_A10_T01
DataType=double
version=3
OpenSimVersion=4.3-2021-08-27-4bc7ad9
endheader
time	pelvis_tilt	pelvis_list	pelvis_rotation	pelvis_tx	pelvis_ty	pelvis_tz	hip_flexion_r	hip_adduction_r	hip_rotation_r	knee_angle_r	knee_angle_r_beta	ankle_angle_r	subtalar_angle_r	mtp_angle_r	hip_flexion_l	hip_adduction_l	hip_rotation_l	knee_angle_l	knee_angle_l_beta	ankle_angle_l	subtalar_angle_l	mtp_angle_l	lumbar_extension	lumbar_bending	lumbar_rotation	arm_flex_r	arm_add_r	arm_rot_r	elbow_flex_r	pro_sup_r	wrist_flex_r	wrist_dev_r	arm_flex_l	arm_add_l	arm_rot_l	elbow_flex_l	pro_sup_l	wrist_flex_l	wrist_dev_l
11.41999999999985	3.226317112584741	0.5611628185185896	12.55298493767205	0	0.9399999999999999	0	44.05448985122548	-9.998982229932214	-9.98865157425641	53.21277745615473	0.9287381707409125	0	0	0	44.05448985122548	-9.998982229932214	-9.98865157425641	53.21277745615473	0.9287381707409125	0	0	0	3.199255086874612	0.1089380967940242	4.528230747616139	88.87769441956925	4.611897067357722	6.092901615893351	40.59125148700721	51.31665470460337	0	0	91.6864739672699	-30.31383684862658	46.33744435680061	40.1955376136986	40.1998416649813	0	0
11.43999999999984	3.229710675457483	0.5590596278583657	12.47225363916659	0	0.9399999999999999	0	44.05491754420058	-9.998983833662427	-9.988663055317865	53.21332022116879	0.9287476437774724	0	0	0	44.05491754420058	-9.998983833662427	-9.988663055317865	53.21332022116879	0.9287476437774724	0	0	0	3.201705725084603	0.1125116356881258	4.609701081182249	88.81263606363387	4.749252584498281	6.149639165789561	39.57761127084392	50.01527862740979	0	0	90.52771444999365	-29.79090369816187	45.91144858370203	40.238943584159	40.20939578810826	0	0
11.45999999999984	3.108571750536314	0.565683285775808	12.38260764554865	0	0.9399999999999999	0	44.06236969015679	-9.999002673506592	-9.988819502853321	53.22578649757195	0.9289652213461714	0	0	0	44.06236969015679	-9.999002673506592	-9.988819502853321	53.22578649757195	0.9289652213461714	0	0	0	3.084930550176964	0.1458803467102806	4.621984605840018	87.54757430673422	5.000324907912179	5.72725573479012	39.60097814384786	49.823919678827	0	0	89.23422169558845	-29.28871405976058	45.14170193189247	40.35677150394043	40.32811299683349	0	0
11.47999999999984	2.886815864042596	0.6217493895252721	12.27992973009279	0	0.9399999999999999	0	44.07867044849256	-9.999043205626938	-9.989158884988406	53.25302871727339	0.9294406877755133	0	0	0	44.07867044849256	-9.999043205626938	-9.989158884988406	53.25302871727339	0.9294406877755133	0	0	0	2.881332914448199	0.2441581506844787	4.589559403059084	84.42993219221877	5.51535152898351	4.607341354420773	41.04854357359763	50.87586739873935	0	0	87.75381562340966	-28.81396564910731	43.8752116769875	40.51157207566656	40.80281025104995	0	0
11.49999999999984	2.751157478486833	0.6355831104611812	12.10850294460486	0	0.9399999999999999	0	44.07913655381146	-9.999044894741379	-9.989171165631223	53.25362112881054	0.9294510273073632	0	0	0	44.07913655381146	-9.999044894741379	-9.989171165631223	53.25362112881054	0.9294510273073632	0	0	0	2.751701161740637	0.2895305205796804	4.640936143463741	84.63263455650487	5.731517267345727	4.774686971578014	40.48341000041466	50.3315679003304	0	0	86.06198552262632	-28.26746576931016	42.4559874771202	40.41856590722107	41.7405668781458	0	0
11.51999999999984	2.697664031423317	0.6332178758290007	12.0360429188905	0	0.9399999999999999	0	44.08883057256829	-9.999068532663589	-9.989370727763472	53.26985906226911	0.9297344327099349	0	0	0	44.08883057256829	-9.999068532663589	-9.989370727763472	53.26985906226911	0.9297344327099349	0	0	0	2.697494278100412	0.3037858140303597	4.663982650494907	82.50007681940077	5.933096951087472	4.223522461693705	40.94708849790177	50.22313597794287	0	0	84.19272797868076	-27.68372007615215	41.03723324306978	40.21109389701154	42.62644108908813	0	0
11.53999999999984	2.563042177338042	0.6279247492901223	11.92257555761298	0	0.9399999999999999	0	44.09883870699752	-9.999092827268948	-9.989576413872687	53.28651781857132	0.9300251828566959	0	0	0	44.09883870699752	-9.999092827268948	-9.989576413872687	53.28651781857132	0.9300251828566959	0	0	0	2.565599211039892	0.327162391972035	4.637199573147558	77.73138137000839	6.15239308466403	2.696514215689461	42.54573371662622	51.01716803664866	0	0	84.04967515325897	-27.61029014966118	41.03242536647849	39.57914784105318	41.75079256560493	0	0
11.55999999999984	2.510418415394995	0.6165425494010887	11.6713487988605	0	0.9399999999999999	0	44.120522739823	-9.999144183163613	-9.99001612715837	53.32275019658944	0.9306575571489393	0	0	0	44.120522739823	-9.999144183163613	-9.99001612715837	53.32275019658944	0.9306575571489393	0	0	0	2.49509670324561	0.3671968813939219	4.833214084407553	75.19466542557103	6.606760087534248	1.368081467994095	41.12394180986006	52.8552047162593	0	0	77.99840442791609	-26.03189698816536	35.40844762119806	40.32530451272824	46.50800681677219	0	0
11.57999999999984	2.358989047599022	0.6031120333353583	11.39890992627394	0	0.9399999999999999	0	44.13315896015699	-9.999173681041563	-9.990270391618642	53.34374789803955	0.9310240361745945	0	0	0	44.13315896015699	-9.999173681041563	-9.990270391618642	53.34374789803955	0.9310240361745945	0	0	0	2.342887701390004	0.3893833608947163	4.900767131417343	73.206615041959	7.362173716984586	-1.039850603098393	39.26971975179866	56.92159460836692	0	0	76.00476365176164	-25.34349069401126	33.07661827435879	39.53049210154437	49.37694438365014	0	0
11.59999999999984	2.221883604207034	0.6080575570948994	11.26589362620749	0	0.9399999999999999	0	44.1414017660918	-9.999192088008495	-9.990432087089578	53.35765439802477	0.9312667503867652	0	0	0	44.1414017660918	-9.999192088008495	-9.990432087089578	53.35765439802477	0.9312667503867652	0	0	0	2.212133241640892	0.4146753556067273	4.805734006955333	70.77902204040946	8.490317925118983	-2.584605723110873	37.24044892265375	61.07228872273722	0	0	75.74278887399146	-25.15453447724287	33.07968945031951	38.18149540489836	50.98668264321151	0	0
11.61999999999984	2.1203166035445	0.607688528932834	11.21173475968383	0	0.9399999999999999	0	44.15643473293935	-9.99922475865279	-9.990722584648033	53.38317878148078	0.9317122349176141	0	0	0	44.15643473293935	-9.99922475865279	-9.990722584648033	53.38317878148078	0.9317122349176141	0	0	0	2.119849083480546	0.4141733717681612	4.711242390944129	68.12125680312805	9.258342473537629	-2.884701090058958	34.57306720467384	66.06321089479302	0	0	73.53386316376668	-24.27965676771622	31.04907625792802	36.10320680448392	55.89738205726394	0	0
11.63999999999984	2.004905525081509	0.6005915244978837	11.20979384890735	0	0.9399999999999999	0	44.16351846942265	-9.999240102744483	-9.990859243289812	53.39512063868752	0.9319206596446749	0	0	0	44.16351846942265	-9.999240102744483	-9.990859243289812	53.39512063868752	0.9319206596446749	0	0	0	2.006237760256729	0.4210778642480777	4.515375070432343	65.21577152712004	9.577080224340138	-1.248468429428999	33.4010292433525	66.91022533208707	0	0	73.37049736892021	-24.13115880340578	30.92814767705818	33.59107236052949	57.62519561794833	0	0
11.65999999999984	1.802948346422622	0.6038394638125013	11.17153221419989	0	0.9399999999999999	0	44.1815397838193	-9.999278334024432	-9.991202574392187	53.4258037436245	0.9324561808505599	0	0	0	44.1815397838193	-9.999278334024432	-9.991202574392187	53.4258037436245	0.9324561808505599	0	0	0	1.816410204931349	0.4402235067329878	4.307368683144053	62.04496224623653	9.688430738249121	1.944508608133908	33.70680884684732	62.00464869292782	0	0	68.17575196829596	-22.98890164059901	29.09854003320076	33.40471171231376	59.78529316872952	0	0
11.67999999999984	1.698458910370712	0.5771539887466057	11.3272021771004	0	0.9399999999999999	0	44.19314686729592	-9.999302466644957	-9.991421331730477	53.44550630357785	0.9328000553928175	0	0	0	44.19314686729592	-9.999302466644957	-9.991421331730477	53.44550630357785	0.9328000553928175	0	0	0	1.704030317392407	0.4387514056293598	4.076950317835323	58.88248670878625	9.428884834504984	4.840538712020225	35.74155765021456	59.14839402457674	0	0	65.2358298636955	-22.61130628139732	28.16813505507704	32.36936601507864	61.45896302388621	0	0
11.69999999999984	1.466189409057165	0.528110138516372	11.35884568760375	0	0.9399999999999999	0	44.20097294789002	-9.999318556972993	-9.991567877240511	53.458793887926	0.9330319674893292	0	0	0	44.20097294789002	-9.999318556972993	-9.991567877240511	53.458793887926	0.9330319674893292	0	0	0	1.46376423875776	0.4377005932121007	3.935785046449102	56.61751686254311	9.106749507323908	5.954029945077951	34.44543844472603	58.47334623712867	0	0	62.90708563573084	-22.78338646304008	26.88634198500468	31.61115942782692	62.76262438373826	0	0
11.71999999999984	1.253043837985814	0.4690627070583911	11.28683189284083	0	0.9399999999999999	0	44.20909346350764	-9.999335101829189	-9.99171926552687	53.47253208080452	0.9332717441883334	0	0	0	44.20909346350764	-9.999335101829189	-9.99171926552687	53.47253208080452	0.9332717441883334	0	0	0	1.256524218261449	0.3939215747812884	3.938986929170691	54.6673327069368	8.567767169473104	5.225501186193346	30.28076798489102	62.09920697123096	0	0	60.49567744503948	-22.69311616678731	25.56450389922961	30.89560754995678	64.34459694487789	0	0
11.73999999999984	1.071058766082936	0.4403123492256095	11.09565302396166	0	0.9399999999999999	0	44.21926580718199	-9.999355313092844	-9.99190623154475	53.48986297204853	0.9335742253028464	0	0	0	44.21926580718199	-9.999355313092844	-9.99190623154475	53.48986297204853	0.9335742253028464	0	0	0	1.076693583574096	0.3900098757728515	4.003351545276762	52.91589106778467	8.033836167048252	3.999563836000033	29.6485792799208	64.95430656635239	0	0	57.98098511129857	-22.2233977618423	24.01930890782766	30.07804113815299	66.53294786443388	0	0
11.75999999999984	0.8908214576319244	0.4468368196966562	11.05444370279356	0	0.9399999999999999	0	44.22756778579791	-9.999371510388205	-9.992057332812754	53.50401198642513	0.93382117218963	0	0	0	44.22756778579791	-9.999371510388205	-9.992057332812754	53.50401198642513	0.93382117218963	0	0	0	0.916678322836125	0.3915018229263442	3.965912889235284	51.11815301388339	8.084546911514497	3.037752064034515	27.05597017153771	68.77715061501584	0	0	55.42228980199854	-21.76106217869942	22.38969131723706	29.45218402967142	68.79585674439465	0	0
11.77999999999984	0.7081280000351373	0.4054714816308591	11.1376728954951	0	0.9399999999999999	0	44.23555164113071	-9.999386905250372	-9.992201747278418	53.51760064089085	0.9340583389509727	0	0	0	44.23555164113071	-9.999386905250372	-9.992201747278418	53.51760064089085	0.9340583389509727	0	0	0	0.7300359229365659	0.3848358897705879	3.88612386712805	49.3326816453464	7.937206892838296	3.000883418738288	25.53186083461807	71.00334418560952	0	0	52.87037653987247	-21.53028838959288	20.73828491866377	29.19330388695644	70.65047507153483	0	0
11.79999999999984	0.5295394564152087	0.365275019230542	11.2743546747674	0	0.9399999999999999	0	44.24396290633707	-9.999402738686658	-9.992351873964131	53.53198987750102	0.9343094785066687	0	0	0	44.24396290633707	-9.999402738686658	-9.992351873964131	53.53198987750102	0.9343094785066687	0	0	0	0.550879863387872	0.3737937150588133	3.860578265913336	47.48715252944323	7.153335988900706	3.667587764779822	24.89463440836204	72.17023986587897	0	0	50.26962917142976	-21.12868495195454	19.54599598712204	29.25347713958628	71.67625330431331	0	0
11.81999999999984	0.2023538211246332	0.2800501752890294	11.39499733805612	0	0.9399999999999999	0	44.25229214519734	-9.999418036849404	-9.992498464859079	53.54633862857975	0.9345599114565417	0	0	0	44.25229214519734	-9.999418036849404	-9.992498464859079	53.54633862857975	0.9345599114565417	0	0	0	0.2184187383276023	0.3467565953617615	3.888797234609837	46.08057560833102	6.168669486633883	4.57408623886802	24.56207937135715	73.38038799008436	0	0	47.86348987896611	-20.56054953579379	19.01335960008049	29.77124438224446	71.86277635389428	0	0
11.83999999999984	0.1475607213917234	0.2571456987944864	11.45015626018332	0	0.9399999999999999	0	44.26162509786942	-9.999434962083866	-9.992661626789145	53.56238909698801	0.9348400449767532	0	0	0	44.26162509786942	-9.999434962083866	-9.992661626789145	53.56238909698801	0.9348400449767532	0	0	0	0.166763036160455	0.3223667582051548	3.836748261762554	44.12817295934849	5.405482501792731	5.681363523423963	23.9911255304792	75.1853778253485	0	0	44.87471369002958	-20.10078019117532	18.58160233768181	30.41357391260997	72.32139508095197	0	0
